<svg width="20" height="20" viewBox="0 0 20 20" fill="none" xmlns="http://www.w3.org/2000/svg">
    <path d="M16.2377 2H4.048C3.24036 2.00211 2.46649 2.28377 1.8954 2.78348C1.32431 3.28318 1.00241 3.96032 1 4.667L1 15.333C1 16.801 2.37143 18 4.048 18H16.2377C17.0454 17.9982 17.8195 17.7166 18.3906 17.2168C18.9618 16.7171 19.2836 16.0398 19.2857 15.333V4.667C19.2857 3.2 17.9143 2 16.2377 2ZM3.73829 5.104L4.26057 4.647L10.1417 8.793L16.0229 4.647L16.5451 5.104L10.1406 11.708L3.736 5.104H3.73829Z" fill="currentColor"/>
</svg>
