<svg width="20" height="20" viewBox="0 0 20 20" fill="none" xmlns="http://www.w3.org/2000/svg">
<path d="M8.85802 2.00997C7.46063 2.26744 6.55435 2.7445 5.61476 3.69846C5.29998 4.01797 5.02341 4.35658 4.86113 4.61421C4.13607 5.7827 3.84039 7.23739 4.08366 8.41551C4.33639 9.61747 5.1186 11.3298 6.36823 13.4044C7.28888 14.9355 9.21573 17.7257 9.4923 17.9308C9.7021 18.0882 9.83092 18.0023 10.2792 17.4109C10.804 16.7144 11.6242 15.5221 12.2729 14.511C13.9328 11.9402 14.9583 9.8369 15.2539 8.41078C15.4352 7.52849 15.316 6.47919 14.9201 5.49176C14.3476 4.06564 13.1267 2.87805 11.6721 2.32948C10.9996 2.07674 10.6943 2.01944 9.81198 2.00523C9.35402 1.9956 8.9248 2.0005 8.85802 2.00997ZM10.4845 4.15152C11.1617 4.32327 11.8533 4.78107 12.3351 5.37731C12.6307 5.73976 12.9646 6.40278 13.1029 6.89404C13.2365 7.35184 13.2841 8.27723 13.203 8.78286C12.8502 10.9719 10.9279 12.4457 8.98684 12.0165C7.54635 11.7017 6.39696 10.3948 6.13459 8.78269C6.04872 8.22939 6.10129 7.3471 6.25378 6.832C6.69263 5.35821 7.77998 4.32801 9.15369 4.08001C9.48757 4.0227 10.1077 4.05617 10.4845 4.15152Z" fill="currentColor"/>
</svg>
