<svg width="20" height="20" viewBox="0 0 20 20" fill="none" xmlns="http://www.w3.org/2000/svg">
    <path d="M13.7333 11.6C12.6667 12.6667 12.6667 13.7333 11.6 13.7333C10.5333 13.7333 9.46667 12.6667 8.4 11.6C7.33333 10.5333 6.26667 9.46667 6.26667 8.4C6.26667 7.33333 7.33333 7.33333 8.4 6.26667C9.46667 5.2 6.26667 2 5.2 2C4.13333 2 2 5.2 2 5.2C2 7.33333 4.192 11.6587 6.26667 13.7333C8.34133 15.808 12.6667 18 14.8 18C14.8 18 18 15.8667 18 14.8C18 13.7333 14.8 10.5333 13.7333 11.6Z" fill="currentColor"/>
</svg>
