<svg width="20" height="20" viewBox="0 0 20 20" fill="none" xmlns="http://www.w3.org/2000/svg">
<g clip-path="url(#clip0_15_2)">
<mask id="mask0_15_2" style="mask-type:luminance" maskUnits="userSpaceOnUse" x="0" y="0" width="20" height="20">
<path d="M20 0H0V20H20V0Z" fill="white"/>
</mask>
<g mask="url(#mask0_15_2)">
<path d="M2.98093 9.96805C2.98093 9.96805 10.0573 6.45575 12.5115 5.21898C13.4524 4.72431 16.6428 3.14124 16.6428 3.14124C16.6428 3.14124 18.1154 2.44871 17.9927 4.13064C17.9517 4.82324 17.6245 7.24721 17.2973 9.86912C16.8064 13.5793 16.2747 17.6359 16.2747 17.6359C16.2747 17.6359 16.1929 18.7736 15.4976 18.9715C14.8021 19.1694 13.6569 18.279 13.4524 18.0811C13.2886 17.9327 10.3845 15.7065 9.32105 14.6183C9.03471 14.3215 8.70749 13.7279 9.36192 13.0352C10.8345 11.4028 12.5933 9.37445 13.6569 8.08825C14.1477 7.49458 14.6385 6.10945 12.5933 7.79138C9.68919 10.2154 6.82591 12.491 6.82591 12.491C6.82591 12.491 6.17142 12.9857 4.94432 12.5405C3.71716 12.0953 2.28552 11.5017 2.28552 11.5017C2.28552 11.5017 1.30388 10.7595 2.98093 9.96805Z" fill="currentColor"/>
</g>
</g>
<defs>
<clipPath id="clip0_15_2">
<rect width="20" height="20" fill="white"/>
</clipPath>
</defs>
</svg>
